<svg width="34" height="34" viewBox="0 0 34 34" fill="none" xmlns="http://www.w3.org/2000/svg">
<path fill-rule="evenodd" clip-rule="evenodd" d="M14.0161 3.25138C14.5398 2.91621 15.2106 2.91621 15.7343 3.25138L29.0156 11.7514C29.7569 12.2259 29.9733 13.2115 29.4988 13.9529C29.0243 14.6942 28.0387 14.9106 27.2973 14.4361L26.0314 13.626V26.375C26.0314 28.7222 24.1287 30.625 21.7814 30.625H7.96894C5.62173 30.625 3.71894 28.7222 3.71894 26.375V13.626L2.45306 14.4361C1.71169 14.9106 0.726054 14.6942 0.251577 13.9529C-0.2229 13.2115 -0.00654015 12.2259 0.73483 11.7514L14.0161 3.25138ZM9.29707 14.6875C9.29707 14.1007 9.77277 13.625 10.3596 13.625H13.5471C14.1339 13.625 14.6096 14.1007 14.6096 14.6875V17.875C14.6096 18.4618 14.1339 18.9375 13.5471 18.9375H10.3596C9.77277 18.9375 9.29707 18.4618 9.29707 17.875V14.6875ZM10.3596 21.5938C10.3596 21.0069 10.8353 20.5312 11.4221 20.5312H13.5471C14.1339 20.5312 14.6096 21.0069 14.6096 21.5938V23.7188C14.6096 24.3056 14.1339 24.7812 13.5471 24.7812H11.4221C10.8353 24.7812 10.3596 24.3056 10.3596 23.7188V21.5938ZM16.2033 15.75C16.2033 15.1632 16.679 14.6875 17.2658 14.6875H19.3908C19.9776 14.6875 20.4533 15.1632 20.4533 15.75V17.875C20.4533 18.4618 19.9776 18.9375 19.3908 18.9375H17.2658C16.679 18.9375 16.2033 18.4618 16.2033 17.875V15.75ZM16.2033 21.5938C16.2033 21.0069 16.679 20.5312 17.2658 20.5312H19.3908C19.9776 20.5312 20.4533 21.0069 20.4533 21.5938V23.7188C20.4533 24.3056 19.9776 24.7812 19.3908 24.7812H17.2658C16.679 24.7812 16.2033 24.3056 16.2033 23.7188V21.5938Z" fill="white"/>
</svg>
