<svg width="31" height="31" viewBox="0 0 31 31" fill="none" xmlns="http://www.w3.org/2000/svg">
<path d="M7.55624 22.0875C8.65416 21.2479 9.88124 20.5857 11.2375 20.1009C12.5937 19.6161 14.0146 19.3741 15.5 19.375C16.9854 19.375 18.4062 19.6174 19.7625 20.1022C21.1187 20.587 22.3458 21.2488 23.4437 22.0875C24.1972 21.2048 24.7841 20.2038 25.2043 19.0844C25.6245 17.9649 25.8342 16.7701 25.8333 15.5C25.8333 12.6368 24.8271 10.1985 22.8147 8.18527C20.8023 6.17199 18.364 5.16579 15.5 5.16665C12.6368 5.16665 10.1986 6.17285 8.18529 8.18527C6.17201 10.1977 5.1658 12.6359 5.16666 15.5C5.16666 16.7701 5.37677 17.9649 5.79699 19.0844C6.21722 20.2038 6.80363 21.2048 7.55624 22.0875ZM15.5 16.7916C14.2299 16.7916 13.1586 16.3559 12.2863 15.4845C11.414 14.613 10.9783 13.5418 10.9792 12.2708C10.9792 11.0007 11.4149 9.92945 12.2863 9.05715C13.1578 8.18484 14.229 7.74912 15.5 7.74998C16.7701 7.74998 17.8414 8.1857 18.7137 9.05715C19.586 9.92859 20.0217 10.9998 20.0208 12.2708C20.0208 13.541 19.5851 14.6122 18.7137 15.4845C17.8422 16.3568 16.771 16.7925 15.5 16.7916ZM15.5 28.4166C13.7132 28.4166 12.034 28.0774 10.4625 27.3988C8.89097 26.7203 7.52395 25.8002 6.36145 24.6385C5.19895 23.476 4.27886 22.109 3.60116 20.5375C2.92347 18.966 2.58419 17.2868 2.58333 15.5C2.58333 13.7132 2.92261 12.034 3.60116 10.4625C4.27972 8.89095 5.19981 7.52394 6.36145 6.36144C7.52395 5.19894 8.89097 4.27884 10.4625 3.60115C12.034 2.92345 13.7132 2.58417 15.5 2.58331C17.2868 2.58331 18.966 2.92259 20.5375 3.60115C22.109 4.2797 23.476 5.1998 24.6385 6.36144C25.801 7.52394 26.7216 8.89095 27.4001 10.4625C28.0787 12.034 28.4175 13.7132 28.4167 15.5C28.4167 17.2868 28.0774 18.966 27.3988 20.5375C26.7203 22.109 25.8002 23.476 24.6385 24.6385C23.476 25.801 22.109 26.7215 20.5375 27.4001C18.966 28.0787 17.2868 28.4175 15.5 28.4166Z" fill="white"/>
</svg>
